<?xml version="1.0" encoding="UTF-8" standalone="no"?><!DOCTYPE svg PUBLIC "-//W3C//DTD SVG 1.1//EN" "http://www.w3.org/Graphics/SVG/1.1/DTD/svg11.dtd"><svg width="100%" height="100%" viewBox="0 0 3889 3889" version="1.1" xmlns="http://www.w3.org/2000/svg" xmlns:xlink="http://www.w3.org/1999/xlink" xml:space="preserve" xmlns:serif="http://www.serif.com/" style="fill-rule:evenodd;clip-rule:evenodd;stroke-linejoin:round;stroke-miterlimit:2;"><g><path d="M1944.44,145.833c-366.794,-0.889 -719.277,142.123 -981.833,398.284c-9.418,9.157 -14.713,21.745 -14.713,34.874c-0,13.128 5.317,25.694 14.735,34.83c243.422,234.789 385.894,555.122 397.266,893.111l-726.333,0c7.682,-221.616 71.639,-437.65 185.806,-627.722c13.867,-23.003 6.489,-52.886 -16.515,-66.756c-22.982,-13.867 -52.865,-6.467 -66.734,16.515c-176.477,293.423 -240.127,641.056 -179.077,977.945c61.066,336.917 242.644,640.055 510.827,852.889c268.206,212.844 604.723,320.811 946.667,303.711c341.95,-17.079 666,-158.028 911.667,-396.528c9.418,-9.158 14.735,-21.723 14.735,-34.852c-0,-13.13 -5.317,-25.716 -14.735,-34.852c-243.423,-234.789 -385.917,-555.1 -397.289,-893.111l726.333,-0c-7.682,221.616 -71.639,437.65 -185.805,627.722c-13.868,23.003 -6.489,52.886 16.515,66.755c22.981,13.868 52.864,6.468 66.733,-16.515c172.2,-286.544 236.978,-624.944 182.789,-954.833c-54.189,-329.861 -223.806,-629.778 -478.6,-846.167c-254.795,-216.405 -578.167,-335.266 -912.5,-335.327l0.061,0.027Zm1311.3,1361.11l-726.739,0c10.916,-321.05 140.233,-626.722 363.067,-858.111c222.505,231.661 351.972,537.111 363.672,858.111Zm-1262.68,0l-0,-1262.67c307.466,11.111 601.166,130.316 829.388,336.655c-240.583,249.523 -379.816,579.556 -390.711,926l-438.677,0.011Zm-926.778,-926.722c228.144,-206.466 522.005,-325.5 829.555,-336.044l0,1262.78l-438.65,-0c-10.677,-346.745 -150.022,-677.112 -390.883,-926.723l-0.022,-0.011Zm-433.128,1023.95l726.733,-0c-11.002,321.027 -140.322,626.666 -363.083,858.111c-222.506,-231.661 -351.956,-537.111 -363.65,-858.111Zm2189.46,926.722l-0.022,-0c-240.95,217.167 -553.839,337.283 -878.222,337.155c-324.373,-0.13 -637.167,-120.527 -877.945,-337.888c240.495,-249.589 379.734,-579.556 390.689,-926l438.695,-0l-0,1020.83c-0,26.844 21.766,48.611 48.611,48.611c26.844,0 48.611,-21.767 48.611,-48.611l-0,-1020.83l438.65,-0c10.677,346.744 150.022,677.111 390.883,926.722l0.05,0.011Z" style="fill-rule:nonzero;stroke:#ff7800;stroke-width:11.11px;"/></g></svg>